<svg wpsType="latex" version="1.1" xmlns="http://www.w3.org/2000/svg" xmlns:xlink="http://www.w3.org/1999/xlink" width="91" height="23" overflow="hidden" viewBox="0 0 91 23"><defs><path id="_glypy_0x28" d="M270 -504Q270 -855 411.5 -1103.5Q553 -1352 709 -1435L715 -1434L748 -1331Q626 -1236 536.0 -1025.5Q446 -815 446 -506V-494Q446 -185 536.0 25.0Q626 235 748 339L715 435H709Q553 352 411.5 104.0Q270 -144 270 -496Z"></path><path id="_glypy_0x29" d="M580 -504V-496Q580 -144 438.5 104.0Q297 352 141 435H136L102 339Q225 235 315.0 25.0Q405 -185 405 -494V-506Q405 -815 314.5 -1025.5Q224 -1236 102 -1331L136 -1434L141 -1435Q297 -1352 438.5 -1103.5Q580 -855 580 -504Z"></path><path id="_glypy_0x2c" d="M307 -59 157 247H40L110 -69V-232H307Z"></path><path id="_glypy_0x1d450" d="M474 -119Q551 -119 620.0 -173.0Q689 -227 702 -303H859L860 -298Q845 -169 722.5 -76.0Q600 17 454 17Q261 17 168.0 -121.0Q75 -259 105 -460L110 -497Q142 -705 271.0 -838.5Q400 -972 602 -972Q756 -972 846.0 -872.5Q936 -773 911 -630L909 -625H750Q763 -716 716.5 -775.5Q670 -835 582 -835Q459 -835 382.0 -734.0Q305 -633 285 -497L280 -460Q257 -312 300.0 -215.5Q343 -119 474 -119Z"></path><path id="_glypy_0x1d452" d="M478 16Q282 16 183.5 -116.0Q85 -248 117 -464L123 -502Q154 -714 290.0 -843.5Q426 -973 598 -973Q781 -973 861.5 -853.0Q942 -733 913 -541L900 -450H288Q267 -293 317.0 -206.0Q367 -119 499 -119Q583 -119 655.0 -144.5Q727 -170 780 -212L830 -100Q773 -51 684.5 -17.5Q596 16 478 16ZM578 -837Q492 -837 421.5 -767.0Q351 -697 320 -590L322 -585H748L750 -599Q766 -705 725.5 -771.0Q685 -837 578 -837Z"></path><path id="_glypy_0x1d456" d="M343 16H172L313 -926H484ZM521 -1173H350L376 -1348H547Z"></path><path id="_glypy_0x1d45c" d="M120 -488Q153 -705 287.0 -838.5Q421 -972 619 -972Q810 -972 908.0 -834.0Q1006 -696 976 -488L972 -468Q939 -247 805.5 -115.0Q672 17 473 17Q282 17 183.5 -120.5Q85 -258 117 -468ZM291 -468Q267 -311 316.5 -215.0Q366 -119 493 -119Q612 -119 693.5 -219.0Q775 -319 798 -468L802 -488Q825 -641 775.0 -738.0Q725 -835 599 -835Q479 -835 397.5 -734.0Q316 -633 294 -488Z"></path><path id="_glypy_0x1d45f" d="M743 -801 655 -806Q587 -806 534.5 -772.0Q482 -738 446 -676L344 0H169L313 -955H469L465 -820Q517 -892 582.5 -932.5Q648 -973 727 -973Q745 -973 763.5 -970.0Q782 -967 792 -963Z"></path><path id="_glypy_0x1d460" d="M648 -258Q656 -317 618.0 -352.5Q580 -388 461 -415Q297 -452 215.5 -516.0Q134 -580 150 -690Q166 -811 276.0 -891.5Q386 -972 546 -972Q701 -972 793.0 -883.0Q885 -794 864 -678L863 -673H696Q705 -736 658.0 -785.5Q611 -835 527 -835Q439 -835 385.5 -793.0Q332 -751 324 -695Q316 -637 350.5 -607.0Q385 -577 506 -551Q676 -514 757.5 -447.0Q839 -380 824 -271Q805 -139 692.0 -61.0Q579 17 412 17Q237 17 141.0 -76.5Q45 -170 67 -292L69 -297H236Q228 -204 286.5 -161.5Q345 -119 431 -119Q520 -119 579.0 -158.5Q638 -198 648 -258Z"></path><path id="_glypy_0x1d462" d="M737 -3 747 -142Q689 -65 611.5 -24.5Q534 16 439 16Q285 16 209.0 -87.0Q133 -190 165 -401L250 -973H427L341 -400Q317 -239 353.5 -183.5Q390 -128 489 -128Q581 -128 649.5 -167.5Q718 -207 761 -280L864 -973H1041L896 -3Z"></path></defs><g><g transform="translate(1, 1)"><g transform="translate(0, 14.399999976158142)"><use x="0" y="0" xlink:href="#_glypy_0x1d460" transform="scale(0.0087890625, 0.0087890625)" style="fill:#000000"></use></g><g transform="translate(8.314453125, 14.399999976158142)"><use x="0" y="0" xlink:href="#_glypy_0x1d450" transform="scale(0.0087890625, 0.0087890625)" style="fill:#000000"></use></g><g transform="translate(16.59375, 14.399999976158142)"><use x="0" y="0" xlink:href="#_glypy_0x1d45c" transform="scale(0.0087890625, 0.0087890625)" style="fill:#000000"></use></g><g transform="translate(26.1826171875, 14.399999976158142)"><use x="0" y="0" xlink:href="#_glypy_0x1d45f" transform="scale(0.0087890625, 0.0087890625)" style="fill:#000000"></use></g><g transform="translate(34.7431640625, 14.399999976158142)"><use x="0" y="0" xlink:href="#_glypy_0x1d452" transform="scale(0.0087890625, 0.0087890625)" style="fill:#000000"></use></g><g transform="translate(43.6728515625, 14.399999976158142)"><use x="0" y="0" xlink:href="#_glypy_0x28" transform="scale(0.0087890625, 0.0087890625)" style="fill:#000000"></use></g><g transform="translate(51.1435546875, 5.997656226158142)"><g transform="translate(0, 8.40234375)"><use x="0" y="0" xlink:href="#_glypy_0x1d462" transform="scale(0.0087890625, 0.0087890625)" style="fill:#000000"></use></g></g><g transform="translate(61.470703125, 5.997656226158142)"><g transform="translate(0, 3.169921875)"><g transform="translate(0, 7.8984375)"><use x="0" y="0" xlink:href="#_glypy_0x1d456" transform="scale(0.005859375, 0.005859375)" style="fill:#000000"></use></g></g></g><g transform="translate(65.2734375, 14.399999976158142)"><use x="0" y="0" xlink:href="#_glypy_0x2c" transform="scale(0.0087890625, 0.0087890625)" style="fill:#000000"></use></g><g transform="translate(72.9287109375, 14.399999976158142)"><use x="0" y="0" xlink:href="#_glypy_0x1d460" transform="scale(0.0087890625, 0.0087890625)" style="fill:#000000"></use></g><g transform="translate(81.2431640625, 14.399999976158142)"><use x="0" y="0" xlink:href="#_glypy_0x29" transform="scale(0.0087890625, 0.0087890625)" style="fill:#000000"></use></g></g></g></svg>