<svg wpsType="latex" version="1.1" xmlns="http://www.w3.org/2000/svg" xmlns:xlink="http://www.w3.org/1999/xlink" width="204" height="41" overflow="hidden" viewBox="0 0 204 41"><defs><path id="_glypy_0x28" d="M270 -504Q270 -855 411.5 -1103.5Q553 -1352 709 -1435L715 -1434L748 -1331Q626 -1236 536.0 -1025.5Q446 -815 446 -506V-494Q446 -185 536.0 25.0Q626 235 748 339L715 435H709Q553 352 411.5 104.0Q270 -144 270 -496Z"></path><path id="_glypy_0x29" d="M580 -504V-496Q580 -144 438.5 104.0Q297 352 141 435H136L102 339Q225 235 315.0 25.0Q405 -185 405 -494V-506Q405 -815 314.5 -1025.5Q224 -1236 102 -1331L136 -1434L141 -1435Q297 -1352 438.5 -1103.5Q580 -855 580 -504Z"></path><path id="_glypy_0x2c" d="M307 -59 157 247H40L110 -69V-232H307Z"></path><path id="_glypy_0x31" d="M816 0H631V-1191L335 -1188V-1330L816 -1381Z"></path><path id="_glypy_0x32" d="M980 0H135V-126L563 -636Q677 -774 717.5 -856.0Q758 -938 758 -1021Q758 -1115 703.0 -1175.5Q648 -1236 550 -1236Q430 -1236 367.0 -1162.0Q304 -1088 304 -978H126L124 -984Q119 -1150 235.0 -1265.5Q351 -1381 550 -1381Q733 -1381 837.5 -1280.0Q942 -1179 942 -1019Q942 -912 882.5 -809.0Q823 -706 702 -551L359 -149L361 -144H980Z"></path><path id="_glypy_0x3d" d="M1306 -859H224L222 -858Q192 -857 172.0 -836.5Q152 -816 152 -787Q152 -757 173.0 -736.0Q194 -715 224 -715H1307Q1337 -716 1357.5 -736.5Q1378 -757 1378 -787Q1378 -816 1357.0 -837.5Q1336 -859 1306 -859ZM1306 -455H222Q192 -454 172.0 -433.0Q152 -412 152 -383Q152 -353 173.0 -332.0Q194 -311 224 -311H1307Q1337 -312 1357.5 -333.0Q1378 -354 1378 -383Q1378 -413 1357.0 -434.0Q1336 -455 1306 -455Z"></path><path id="_glypy_0x7c" d="M422 363H225V-1363H422Z"></path><path id="_glypy_0xd7" d="M1237 -1086Q1214 -1107 1186.0 -1107.0Q1158 -1107 1135 -1086L732 -683L328 -1087Q306 -1108 277.5 -1107.5Q249 -1107 227 -1086Q206 -1063 206.0 -1035.5Q206 -1008 227 -984L630 -581L226 -177Q206 -155 206.0 -126.5Q206 -98 227 -76Q250 -55 278.0 -55.0Q306 -55 329 -76L732 -480L1135 -76H1136Q1158 -55 1186.5 -55.5Q1215 -56 1237 -76Q1258 -100 1258.0 -127.5Q1258 -155 1237 -178L834 -581L1238 -985Q1258 -1008 1258.0 -1036.0Q1258 -1064 1237 -1086Z"></path><path id="_glypy_0x22c5" d="M289 -701Q340 -701 373 -669Q405 -636 405 -585Q405 -534 373 -501Q340 -469 289 -469Q238 -469 206 -501Q173 -534 173 -585Q173 -636 206 -669Q238 -701 289 -701Z"></path><path id="_glypy_0x1d456" d="M343 16H172L313 -926H484ZM521 -1173H350L376 -1348H547Z"></path><path id="_glypy_0x1d45a" d="M420 -832Q478 -900 556.5 -936.5Q635 -973 734 -973Q827 -973 891.0 -928.0Q955 -883 977 -794Q1035 -877 1118.5 -925.0Q1202 -973 1304 -973Q1448 -973 1521.0 -870.0Q1594 -767 1565 -563L1477 16H1300L1387 -565Q1410 -714 1369.5 -771.5Q1329 -829 1229 -829Q1142 -829 1075.0 -765.0Q1008 -701 983 -605Q982 -604 982.0 -602.5Q982 -601 982 -599L889 16H710L798 -565Q819 -707 778.0 -768.0Q737 -829 640 -829Q561 -829 503.0 -793.5Q445 -758 407 -695L300 16H122L268 -955H427Z"></path><path id="_glypy_0x1d460" d="M648 -258Q656 -317 618.0 -352.5Q580 -388 461 -415Q297 -452 215.5 -516.0Q134 -580 150 -690Q166 -811 276.0 -891.5Q386 -972 546 -972Q701 -972 793.0 -883.0Q885 -794 864 -678L863 -673H696Q705 -736 658.0 -785.5Q611 -835 527 -835Q439 -835 385.5 -793.0Q332 -751 324 -695Q316 -637 350.5 -607.0Q385 -577 506 -551Q676 -514 757.5 -447.0Q839 -380 824 -271Q805 -139 692.0 -61.0Q579 17 412 17Q237 17 141.0 -76.5Q45 -170 67 -292L69 -297H236Q228 -204 286.5 -161.5Q345 -119 431 -119Q520 -119 579.0 -158.5Q638 -198 648 -258Z"></path><path id="_glypy_0x1d463" d="M456 -277 462 -207 467 -206 495 -277 829 -977H1014L498 17H361L139 -977H325Z"></path></defs><g><g transform="translate(1, 1)"><g transform="translate(0, 21.9814453125)"><use x="0" y="0" xlink:href="#_glypy_0x1d460" transform="scale(0.0087890625, 0.0087890625)" style="fill:#000000"></use></g><g transform="translate(8.314453125, 21.9814453125)"><use x="0" y="0" xlink:href="#_glypy_0x1d456" transform="scale(0.0087890625, 0.0087890625)" style="fill:#000000"></use></g><g transform="translate(14.0185546875, 21.9814453125)"><use x="0" y="0" xlink:href="#_glypy_0x1d45a" transform="scale(0.0087890625, 0.0087890625)" style="fill:#000000"></use></g><g transform="translate(29.109375, 21.9814453125)"><use x="0" y="0" xlink:href="#_glypy_0x28" transform="scale(0.0087890625, 0.0087890625)" style="fill:#000000"></use></g><g transform="translate(36.580078125, 13.5791015625)"><g transform="translate(0, 8.40234375)"><use x="0" y="0" xlink:href="#_glypy_0x1d463" transform="scale(0.0087890625, 0.0087890625)" style="fill:#000000"></use></g></g><g transform="translate(46.37109375, 13.5791015625)"><g transform="translate(0, 2.9765625)"><g transform="translate(0, 8.091796875)"><use x="0" y="0" xlink:href="#_glypy_0x31" transform="scale(0.005859375, 0.005859375)" style="fill:#000000"></use></g></g></g><g transform="translate(53.015625, 21.9814453125)"><use x="0" y="0" xlink:href="#_glypy_0x2c" transform="scale(0.0087890625, 0.0087890625)" style="fill:#000000"></use></g><g transform="translate(56.70703125, 13.5791015625)"><g transform="translate(0, 8.40234375)"><use x="0" y="0" xlink:href="#_glypy_0x1d463" transform="scale(0.0087890625, 0.0087890625)" style="fill:#000000"></use></g></g><g transform="translate(66.498046875, 13.5791015625)"><g transform="translate(0, 2.9765625)"><g transform="translate(0, 8.091796875)"><use x="0" y="0" xlink:href="#_glypy_0x32" transform="scale(0.005859375, 0.005859375)" style="fill:#000000"></use></g></g></g><g transform="translate(73.142578125, 21.9814453125)"><use x="0" y="0" xlink:href="#_glypy_0x29" transform="scale(0.0087890625, 0.0087890625)" style="fill:#000000"></use></g><g transform="translate(83.97509765625, 21.9814453125)"><use x="0" y="0" xlink:href="#_glypy_0x3d" transform="scale(0.0087890625, 0.0087890625)" style="fill:#000000"></use></g><g transform="translate(100.7841796875, 0)"><g transform="translate(30.114990234375, 0)"><g><g><g transform="translate(0, 8.40234375)"><use x="0" y="0" xlink:href="#_glypy_0x1d463" transform="scale(0.0087890625, 0.0087890625)" style="fill:#000000"></use></g></g><g transform="translate(9.791015625, 2.9765625)"><g transform="translate(0, 8.091796875)"><use x="0" y="0" xlink:href="#_glypy_0x31" transform="scale(0.005859375, 0.005859375)" style="fill:#000000"></use></g></g></g><g transform="translate(17.70556640625, 8.40234375)"><use x="0" y="0" xlink:href="#_glypy_0x22c5" transform="scale(0.0087890625, 0.0087890625)" style="fill:#000000"></use></g><g transform="translate(24.0556640625, 0)"><g><g transform="translate(0, 8.40234375)"><use x="0" y="0" xlink:href="#_glypy_0x1d463" transform="scale(0.0087890625, 0.0087890625)" style="fill:#000000"></use></g></g><g transform="translate(9.791015625, 2.9765625)"><g transform="translate(0, 8.091796875)"><use x="0" y="0" xlink:href="#_glypy_0x32" transform="scale(0.005859375, 0.005859375)" style="fill:#000000"></use></g></g></g></g><g transform="translate(1.5, 21.65625)"><g transform="translate(0, 12.5771484375)"><use x="0" y="0" xlink:href="#_glypy_0x7c" transform="scale(0.0087890625, 0.0087890625)" style="fill:#000000"></use></g><g transform="translate(5.6953125, 12.5771484375)"><use x="0" y="0" xlink:href="#_glypy_0x7c" transform="scale(0.0087890625, 0.0087890625)" style="fill:#000000"></use></g><g transform="translate(11.390625, 4.1748046875)"><g><g transform="translate(0, 8.40234375)"><use x="0" y="0" xlink:href="#_glypy_0x1d463" transform="scale(0.0087890625, 0.0087890625)" style="fill:#000000"></use></g></g><g transform="translate(9.791015625, 2.9765625)"><g transform="translate(0, 8.091796875)"><use x="0" y="0" xlink:href="#_glypy_0x31" transform="scale(0.005859375, 0.005859375)" style="fill:#000000"></use></g></g></g><g transform="translate(27.826171875, 12.5771484375)"><use x="0" y="0" xlink:href="#_glypy_0x7c" transform="scale(0.0087890625, 0.0087890625)" style="fill:#000000"></use></g><g transform="translate(33.521484375, 12.5771484375)"><use x="0" y="0" xlink:href="#_glypy_0x7c" transform="scale(0.0087890625, 0.0087890625)" style="fill:#000000"></use></g><g transform="translate(42.431396484375, 12.5771484375)"><use x="0" y="0" xlink:href="#_glypy_0xd7" transform="scale(0.0087890625, 0.0087890625)" style="fill:#000000"></use></g><g transform="translate(58.50439453125, 12.5771484375)"><use x="0" y="0" xlink:href="#_glypy_0x7c" transform="scale(0.0087890625, 0.0087890625)" style="fill:#000000"></use></g><g transform="translate(64.19970703125, 12.5771484375)"><use x="0" y="0" xlink:href="#_glypy_0x7c" transform="scale(0.0087890625, 0.0087890625)" style="fill:#000000"></use></g><g transform="translate(69.89501953125, 4.1748046875)"><g><g transform="translate(0, 8.40234375)"><use x="0" y="0" xlink:href="#_glypy_0x1d463" transform="scale(0.0087890625, 0.0087890625)" style="fill:#000000"></use></g></g><g transform="translate(9.791015625, 2.9765625)"><g transform="translate(0, 8.091796875)"><use x="0" y="0" xlink:href="#_glypy_0x32" transform="scale(0.005859375, 0.005859375)" style="fill:#000000"></use></g></g></g><g transform="translate(86.33056640625, 12.5771484375)"><use x="0" y="0" xlink:href="#_glypy_0x7c" transform="scale(0.0087890625, 0.0087890625)" style="fill:#000000"></use></g><g transform="translate(92.02587890625, 12.5771484375)"><use x="0" y="0" xlink:href="#_glypy_0x7c" transform="scale(0.0087890625, 0.0087890625)" style="fill:#000000"></use></g></g><path fill="none" stroke="#000000" d=" M 1.5 16.83984375 L 99.22119140625 16.83984375" stroke-dasharray=""></path></g></g></g></svg>