<svg wpsType="latex" version="1.1" xmlns="http://www.w3.org/2000/svg" xmlns:xlink="http://www.w3.org/1999/xlink" width="162" height="73" overflow="hidden" viewBox="0 0 162 73"><defs><path id="_glypy_0x31" d="M816 0H631V-1191L335 -1188V-1330L816 -1381Z"></path><path id="_glypy_0x32" d="M980 0H135V-126L563 -636Q677 -774 717.5 -856.0Q758 -938 758 -1021Q758 -1115 703.0 -1175.5Q648 -1236 550 -1236Q430 -1236 367.0 -1162.0Q304 -1088 304 -978H126L124 -984Q119 -1150 235.0 -1265.5Q351 -1381 550 -1381Q733 -1381 837.5 -1280.0Q942 -1179 942 -1019Q942 -912 882.5 -809.0Q823 -706 702 -551L359 -149L361 -144H980Z"></path><path id="_glypy_0x22ee" d="M318 -1302Q266 -1302 231 -1266Q196 -1229 196 -1173Q196 -1117 231 -1081Q266 -1044 318 -1044Q370 -1044 405 -1081Q440 -1117 440 -1173Q440 -1229 405 -1266Q370 -1302 318 -1302ZM318 -246Q266 -246 231 -210Q196 -173 196 -117Q196 -61 231 -25Q266 12 318 12Q370 12 405 -25Q440 -61 440 -117Q440 -173 405 -210Q370 -246 318 -246ZM318 -774Q266 -774 231 -738Q196 -701 196 -645Q196 -589 231 -553Q266 -516 318 -516Q370 -516 405 -553Q440 -589 440 -645Q440 -701 405 -738Q370 -774 318 -774Z"></path><path id="_glypy_0x22ef" d="M1479 -714Q1427 -714 1392 -678Q1357 -641 1357 -585Q1357 -529 1392 -493Q1427 -456 1479 -456Q1531 -456 1566 -493Q1601 -529 1601 -585Q1601 -641 1566 -678Q1531 -714 1479 -714ZM877 -714Q825 -714 790 -678Q755 -641 755 -585Q755 -529 790 -493Q825 -456 877 -456Q929 -456 964 -493Q999 -529 999 -585Q999 -641 964 -678Q929 -714 877 -714ZM275 -714Q223 -714 188 -678Q153 -641 153 -585Q153 -529 188 -493Q223 -456 275 -456Q327 -456 362 -493Q397 -529 397 -585Q397 -641 362 -678Q327 -714 275 -714Z"></path><path id="_glypy_0x22f1" d="M284 -1179Q232 -1179 197 -1143Q162 -1106 162 -1050Q162 -994 197 -958Q232 -921 284 -921Q336 -921 371 -958Q406 -994 406 -1050Q406 -1106 371 -1143Q336 -1179 284 -1179ZM628 -774Q576 -774 541 -738Q506 -701 506 -645Q506 -589 541 -553Q576 -516 628 -516Q680 -516 715 -553Q750 -589 750 -645Q750 -701 715 -738Q680 -774 628 -774ZM982 -369Q930 -369 895 -333Q860 -296 860 -240Q860 -184 895 -148Q930 -111 982 -111Q1034 -111 1069 -148Q1104 -184 1104 -240Q1104 -296 1069 -333Q1034 -369 982 -369Z"></path><path id="_glypy_0x1d45b" d="M427 -815Q487 -891 566.5 -932.0Q646 -973 740 -973Q892 -973 967.5 -879.5Q1043 -786 1014 -595L922 16H745L837 -592Q856 -725 814.0 -777.0Q772 -829 665 -829Q586 -829 523.0 -794.0Q460 -759 417 -698L309 16H131L277 -955H436Z"></path><path id="_glypy_0x1d45f" d="M743 -801 655 -806Q587 -806 534.5 -772.0Q482 -738 446 -676L344 0H169L313 -955H469L465 -820Q517 -892 582.5 -932.5Q648 -973 727 -973Q745 -973 763.5 -970.0Q782 -967 792 -963Z"></path></defs><g><g transform="translate(1, 1)"><g><g><path fill="#000000" stroke="none" paint-order="stroke fill markers" d=" M 11.475 0 L 10.679504871165134 -0.795495128834866 Q 3.375 1.5 3.375 35.27783203125 Q 3.375 69.0556640625 10.679504871165134 71.35115919133487 L 11.475 70.5556640625 Q 5.625 69.0556640625 5.625 35.27783203125 Q 5.625 1.5 11.475 0"></path></g><g transform="translate(12.0375, 0)"><g transform="translate(0.1201171875, 0)"><g><g><g transform="translate(0, 8.5517578125)"><use x="0" y="0" xlink:href="#_glypy_0x1d45f" transform="scale(0.0087890625, 0.0087890625)" style="fill:#000000"></use></g></g><g transform="translate(8.560546875, 3.1259765625)"><g transform="translate(0, 8.091796875)"><use x="0" y="0" xlink:href="#_glypy_0x31" transform="scale(0.005859375, 0.005859375)" style="fill:#000000"></use></g><g transform="translate(6.64453125, 8.091796875)"><use x="0" y="0" xlink:href="#_glypy_0x31" transform="scale(0.005859375, 0.005859375)" style="fill:#000000"></use></g></g></g></g><g transform="translate(40.2275390625, 0)"><g><g><g transform="translate(0, 8.5517578125)"><use x="0" y="0" xlink:href="#_glypy_0x1d45f" transform="scale(0.0087890625, 0.0087890625)" style="fill:#000000"></use></g></g><g transform="translate(8.560546875, 3.1259765625)"><g transform="translate(0, 8.091796875)"><use x="0" y="0" xlink:href="#_glypy_0x31" transform="scale(0.005859375, 0.005859375)" style="fill:#000000"></use></g><g transform="translate(6.64453125, 8.091796875)"><use x="0" y="0" xlink:href="#_glypy_0x32" transform="scale(0.005859375, 0.005859375)" style="fill:#000000"></use></g></g></g></g><g transform="translate(80.21484375, 2.2763671875)"><g transform="translate(0, 6.275390625)"><use x="0" y="0" xlink:href="#_glypy_0x22ef" transform="scale(0.0087890625, 0.0087890625)" style="fill:#000000"></use></g></g><g transform="translate(113.7685546875, 0)"><g><g><g transform="translate(0, 8.5517578125)"><use x="0" y="0" xlink:href="#_glypy_0x1d45f" transform="scale(0.0087890625, 0.0087890625)" style="fill:#000000"></use></g></g><g transform="translate(8.560546875, 3.1259765625)"><g transform="translate(0, 8.091796875)"><use x="0" y="0" xlink:href="#_glypy_0x31" transform="scale(0.005859375, 0.005859375)" style="fill:#000000"></use></g><g transform="translate(6.64453125, 8.091796875)"><use x="0" y="0" xlink:href="#_glypy_0x1d45b" transform="scale(0.005859375, 0.005859375)" style="fill:#000000"></use></g></g></g></g><g transform="translate(0.1201171875, 19.017578125)"><g><g><g transform="translate(0, 8.5517578125)"><use x="0" y="0" xlink:href="#_glypy_0x1d45f" transform="scale(0.0087890625, 0.0087890625)" style="fill:#000000"></use></g></g><g transform="translate(8.560546875, 3.1259765625)"><g transform="translate(0, 8.091796875)"><use x="0" y="0" xlink:href="#_glypy_0x32" transform="scale(0.005859375, 0.005859375)" style="fill:#000000"></use></g><g transform="translate(6.64453125, 8.091796875)"><use x="0" y="0" xlink:href="#_glypy_0x31" transform="scale(0.005859375, 0.005859375)" style="fill:#000000"></use></g></g></g></g><g transform="translate(40.2275390625, 19.017578125)"><g><g><g transform="translate(0, 8.5517578125)"><use x="0" y="0" xlink:href="#_glypy_0x1d45f" transform="scale(0.0087890625, 0.0087890625)" style="fill:#000000"></use></g></g><g transform="translate(8.560546875, 3.1259765625)"><g transform="translate(0, 8.091796875)"><use x="0" y="0" xlink:href="#_glypy_0x32" transform="scale(0.005859375, 0.005859375)" style="fill:#000000"></use></g><g transform="translate(6.64453125, 8.091796875)"><use x="0" y="0" xlink:href="#_glypy_0x32" transform="scale(0.005859375, 0.005859375)" style="fill:#000000"></use></g></g></g></g><g transform="translate(80.21484375, 21.2939453125)"><g transform="translate(0, 6.275390625)"><use x="0" y="0" xlink:href="#_glypy_0x22ef" transform="scale(0.0087890625, 0.0087890625)" style="fill:#000000"></use></g></g><g transform="translate(113.7685546875, 19.017578125)"><g><g><g transform="translate(0, 8.5517578125)"><use x="0" y="0" xlink:href="#_glypy_0x1d45f" transform="scale(0.0087890625, 0.0087890625)" style="fill:#000000"></use></g></g><g transform="translate(8.560546875, 3.1259765625)"><g transform="translate(0, 8.091796875)"><use x="0" y="0" xlink:href="#_glypy_0x32" transform="scale(0.005859375, 0.005859375)" style="fill:#000000"></use></g><g transform="translate(6.64453125, 8.091796875)"><use x="0" y="0" xlink:href="#_glypy_0x1d45b" transform="scale(0.005859375, 0.005859375)" style="fill:#000000"></use></g></g></g></g><g transform="translate(8.25, 35.1083984375)"><g transform="translate(0, 11.478515625)"><use x="0" y="0" xlink:href="#_glypy_0x22ee" transform="scale(0.0087890625, 0.0087890625)" style="fill:#000000"></use></g></g><g transform="translate(48.357421875, 35.1083984375)"><g transform="translate(0, 11.478515625)"><use x="0" y="0" xlink:href="#_glypy_0x22ee" transform="scale(0.0087890625, 0.0087890625)" style="fill:#000000"></use></g></g><g transform="translate(82.359375, 36.20703125)"><g transform="translate(0, 10.3798828125)"><use x="0" y="0" xlink:href="#_glypy_0x22f1" transform="scale(0.0087890625, 0.0087890625)" style="fill:#000000"></use></g></g><g transform="translate(122.0185546875, 35.1083984375)"><g transform="translate(0, 11.478515625)"><use x="0" y="0" xlink:href="#_glypy_0x22ee" transform="scale(0.0087890625, 0.0087890625)" style="fill:#000000"></use></g></g><g transform="translate(0, 57.052734375)"><g><g><g transform="translate(0, 8.5517578125)"><use x="0" y="0" xlink:href="#_glypy_0x1d45f" transform="scale(0.0087890625, 0.0087890625)" style="fill:#000000"></use></g></g><g transform="translate(8.560546875, 3.1259765625)"><g transform="translate(0, 8.091796875)"><use x="0" y="0" xlink:href="#_glypy_0x1d45b" transform="scale(0.005859375, 0.005859375)" style="fill:#000000"></use></g><g transform="translate(6.884765625, 8.091796875)"><use x="0" y="0" xlink:href="#_glypy_0x31" transform="scale(0.005859375, 0.005859375)" style="fill:#000000"></use></g></g></g></g><g transform="translate(40.107421875, 57.052734375)"><g><g><g transform="translate(0, 8.5517578125)"><use x="0" y="0" xlink:href="#_glypy_0x1d45f" transform="scale(0.0087890625, 0.0087890625)" style="fill:#000000"></use></g></g><g transform="translate(8.560546875, 3.1259765625)"><g transform="translate(0, 8.091796875)"><use x="0" y="0" xlink:href="#_glypy_0x1d45b" transform="scale(0.005859375, 0.005859375)" style="fill:#000000"></use></g><g transform="translate(6.884765625, 8.091796875)"><use x="0" y="0" xlink:href="#_glypy_0x32" transform="scale(0.005859375, 0.005859375)" style="fill:#000000"></use></g></g></g></g><g transform="translate(80.21484375, 59.3291015625)"><g transform="translate(0, 6.275390625)"><use x="0" y="0" xlink:href="#_glypy_0x22ef" transform="scale(0.0087890625, 0.0087890625)" style="fill:#000000"></use></g></g><g transform="translate(113.6484375, 57.052734375)"><g><g><g transform="translate(0, 8.5517578125)"><use x="0" y="0" xlink:href="#_glypy_0x1d45f" transform="scale(0.0087890625, 0.0087890625)" style="fill:#000000"></use></g></g><g transform="translate(8.560546875, 5.5224609375)"><g transform="translate(0, 5.6953125)"><use x="0" y="0" xlink:href="#_glypy_0x1d45b" transform="scale(0.005859375, 0.005859375)" style="fill:#000000"></use></g><g transform="translate(6.884765625, 5.6953125)"><use x="0" y="0" xlink:href="#_glypy_0x1d45b" transform="scale(0.005859375, 0.005859375)" style="fill:#000000"></use></g></g></g></g></g><g transform="translate(148.016015625, 0)"><path fill="#000000" stroke="none" paint-order="stroke fill markers" d=" M 0.5625 0 L 1.357995128834866 -0.795495128834866 Q 8.6625 1.5 8.6625 35.27783203125 Q 8.6625 69.0556640625 1.357995128834866 71.35115919133487 L 0.5625 70.5556640625 Q 6.4125 69.0556640625 6.4125 35.27783203125 Q 6.4125 1.5 0.5625 0"></path></g></g></g></g></svg>