<svg wpsType="latex" version="1.1" xmlns="http://www.w3.org/2000/svg" xmlns:xlink="http://www.w3.org/1999/xlink" width="307" height="48" overflow="hidden" viewBox="0 0 307 48"><defs><path id="_glypy_0x28" d="M270 -504Q270 -855 411.5 -1103.5Q553 -1352 709 -1435L715 -1434L748 -1331Q626 -1236 536.0 -1025.5Q446 -815 446 -506V-494Q446 -185 536.0 25.0Q626 235 748 339L715 435H709Q553 352 411.5 104.0Q270 -144 270 -496Z"></path><path id="_glypy_0x29" d="M580 -504V-496Q580 -144 438.5 104.0Q297 352 141 435H136L102 339Q225 235 315.0 25.0Q405 -185 405 -494V-506Q405 -815 314.5 -1025.5Q224 -1236 102 -1331L136 -1434L141 -1435Q297 -1352 438.5 -1103.5Q580 -855 580 -504Z"></path><path id="_glypy_0x2c" d="M307 -59 157 247H40L110 -69V-232H307Z"></path><path id="_glypy_0x3d" d="M1306 -859H224L222 -858Q192 -857 172.0 -836.5Q152 -816 152 -787Q152 -757 173.0 -736.0Q194 -715 224 -715H1307Q1337 -716 1357.5 -736.5Q1378 -757 1378 -787Q1378 -816 1357.0 -837.5Q1336 -859 1306 -859ZM1306 -455H222Q192 -454 172.0 -433.0Q152 -412 152 -383Q152 -353 173.0 -332.0Q194 -311 224 -311H1307Q1337 -312 1357.5 -333.0Q1378 -354 1378 -383Q1378 -413 1357.0 -434.0Q1336 -455 1306 -455Z"></path><path id="_glypy_0x2208" d="M1055 -1200H611Q481 -1196 376.5 -1133.0Q272 -1070 209.5 -963.5Q147 -857 147 -728V-464Q151 -334 214.0 -229.5Q277 -125 383.5 -62.5Q490 0 619 0H1056Q1086 -1 1106.5 -22.0Q1127 -43 1127 -72Q1127 -102 1106.0 -123.0Q1085 -144 1055 -144H614Q476 -150 383.5 -243.5Q291 -337 291 -472V-524H1056Q1086 -525 1106.5 -546.0Q1127 -567 1127 -596Q1127 -626 1106.0 -647.0Q1085 -668 1055 -668H291V-733Q297 -871 390.5 -963.5Q484 -1056 619 -1056H1056Q1086 -1057 1106.5 -1078.0Q1127 -1099 1127 -1128Q1127 -1158 1106.0 -1179.0Q1085 -1200 1055 -1200Z"></path><path id="_glypy_0x22c5" d="M289 -701Q340 -701 373 -669Q405 -636 405 -585Q405 -534 373 -501Q340 -469 289 -469Q238 -469 206 -501Q173 -534 173 -585Q173 -636 206 -669Q238 -701 289 -701Z"></path><path id="_glypy_0x1d448" d="M1359 -1365 1223 -460Q1189 -227 1026.5 -105.0Q864 17 631 17Q417 17 291.0 -110.5Q165 -238 199 -460L334 -1365H518L383 -460Q358 -297 434.0 -212.0Q510 -127 653 -127Q796 -127 906.0 -215.5Q1016 -304 1039 -460L1175 -1365Z"></path><path id="_glypy_0x1d450" d="M474 -119Q551 -119 620.0 -173.0Q689 -227 702 -303H859L860 -298Q845 -169 722.5 -76.0Q600 17 454 17Q261 17 168.0 -121.0Q75 -259 105 -460L110 -497Q142 -705 271.0 -838.5Q400 -972 602 -972Q756 -972 846.0 -872.5Q936 -773 911 -630L909 -625H750Q763 -716 716.5 -775.5Q670 -835 582 -835Q459 -835 382.0 -734.0Q305 -633 285 -497L280 -460Q257 -312 300.0 -215.5Q343 -119 474 -119Z"></path><path id="_glypy_0x1d452" d="M478 16Q282 16 183.5 -116.0Q85 -248 117 -464L123 -502Q154 -714 290.0 -843.5Q426 -973 598 -973Q781 -973 861.5 -853.0Q942 -733 913 -541L900 -450H288Q267 -293 317.0 -206.0Q367 -119 499 -119Q583 -119 655.0 -144.5Q727 -170 780 -212L830 -100Q773 -51 684.5 -17.5Q596 16 478 16ZM578 -837Q492 -837 421.5 -767.0Q351 -697 320 -590L322 -585H748L750 -599Q766 -705 725.5 -771.0Q685 -837 578 -837Z"></path><path id="_glypy_0x1d456" d="M343 16H172L313 -926H484ZM521 -1173H350L376 -1348H547Z"></path><path id="_glypy_0x1d45a" d="M420 -832Q478 -900 556.5 -936.5Q635 -973 734 -973Q827 -973 891.0 -928.0Q955 -883 977 -794Q1035 -877 1118.5 -925.0Q1202 -973 1304 -973Q1448 -973 1521.0 -870.0Q1594 -767 1565 -563L1477 16H1300L1387 -565Q1410 -714 1369.5 -771.5Q1329 -829 1229 -829Q1142 -829 1075.0 -765.0Q1008 -701 983 -605Q982 -604 982.0 -602.5Q982 -601 982 -599L889 16H710L798 -565Q819 -707 778.0 -768.0Q737 -829 640 -829Q561 -829 503.0 -793.5Q445 -758 407 -695L300 16H122L268 -955H427Z"></path><path id="_glypy_0x1d45c" d="M120 -488Q153 -705 287.0 -838.5Q421 -972 619 -972Q810 -972 908.0 -834.0Q1006 -696 976 -488L972 -468Q939 -247 805.5 -115.0Q672 17 473 17Q282 17 183.5 -120.5Q85 -258 117 -468ZM291 -468Q267 -311 316.5 -215.0Q366 -119 493 -119Q612 -119 693.5 -219.0Q775 -319 798 -468L802 -488Q825 -641 775.0 -738.0Q725 -835 599 -835Q479 -835 397.5 -734.0Q316 -633 294 -488Z"></path><path id="_glypy_0x1d45f" d="M743 -801 655 -806Q587 -806 534.5 -772.0Q482 -738 446 -676L344 0H169L313 -955H469L465 -820Q517 -892 582.5 -932.5Q648 -973 727 -973Q745 -973 763.5 -970.0Q782 -967 792 -963Z"></path><path id="_glypy_0x1d460" d="M648 -258Q656 -317 618.0 -352.5Q580 -388 461 -415Q297 -452 215.5 -516.0Q134 -580 150 -690Q166 -811 276.0 -891.5Q386 -972 546 -972Q701 -972 793.0 -883.0Q885 -794 864 -678L863 -673H696Q705 -736 658.0 -785.5Q611 -835 527 -835Q439 -835 385.5 -793.0Q332 -751 324 -695Q316 -637 350.5 -607.0Q385 -577 506 -551Q676 -514 757.5 -447.0Q839 -380 824 -271Q805 -139 692.0 -61.0Q579 17 412 17Q237 17 141.0 -76.5Q45 -170 67 -292L69 -297H236Q228 -204 286.5 -161.5Q345 -119 431 -119Q520 -119 579.0 -158.5Q638 -198 648 -258Z"></path><path id="_glypy_0x1d462" d="M737 -3 747 -142Q689 -65 611.5 -24.5Q534 16 439 16Q285 16 209.0 -87.0Q133 -190 165 -401L250 -973H427L341 -400Q317 -239 353.5 -183.5Q390 -128 489 -128Q581 -128 649.5 -167.5Q718 -207 761 -280L864 -973H1041L896 -3Z"></path></defs><g><g transform="translate(1, 1)"><g transform="translate(0, 20.01708984375)"><use x="0" y="0" xlink:href="#_glypy_0x1d460" transform="scale(0.0087890625, 0.0087890625)" style="fill:#000000"></use></g><g transform="translate(8.314453125, 20.01708984375)"><use x="0" y="0" xlink:href="#_glypy_0x1d450" transform="scale(0.0087890625, 0.0087890625)" style="fill:#000000"></use></g><g transform="translate(16.59375, 20.01708984375)"><use x="0" y="0" xlink:href="#_glypy_0x1d45c" transform="scale(0.0087890625, 0.0087890625)" style="fill:#000000"></use></g><g transform="translate(26.1826171875, 20.01708984375)"><use x="0" y="0" xlink:href="#_glypy_0x1d45f" transform="scale(0.0087890625, 0.0087890625)" style="fill:#000000"></use></g><g transform="translate(34.7431640625, 20.01708984375)"><use x="0" y="0" xlink:href="#_glypy_0x1d452" transform="scale(0.0087890625, 0.0087890625)" style="fill:#000000"></use></g><g transform="translate(43.6728515625, 20.01708984375)"><use x="0" y="0" xlink:href="#_glypy_0x28" transform="scale(0.0087890625, 0.0087890625)" style="fill:#000000"></use></g><g transform="translate(51.1435546875, 20.01708984375)"><use x="0" y="0" xlink:href="#_glypy_0x1d462" transform="scale(0.0087890625, 0.0087890625)" style="fill:#000000"></use></g><g transform="translate(61.470703125, 20.01708984375)"><use x="0" y="0" xlink:href="#_glypy_0x2c" transform="scale(0.0087890625, 0.0087890625)" style="fill:#000000"></use></g><g transform="translate(69.1259765625, 20.01708984375)"><use x="0" y="0" xlink:href="#_glypy_0x1d460" transform="scale(0.0087890625, 0.0087890625)" style="fill:#000000"></use></g><g transform="translate(77.4404296875, 20.01708984375)"><use x="0" y="0" xlink:href="#_glypy_0x29" transform="scale(0.0087890625, 0.0087890625)" style="fill:#000000"></use></g><g transform="translate(88.27294921875, 20.01708984375)"><use x="0" y="0" xlink:href="#_glypy_0x3d" transform="scale(0.0087890625, 0.0087890625)" style="fill:#000000"></use></g><g transform="translate(105.08203125, 0)"><g transform="translate(0, 35.2880859375)"><g transform="translate(0, 2.396484375)"><g><g transform="translate(0, 5.6015625)"><use x="0" y="0" xlink:href="#_glypy_0x1d462" transform="scale(0.005859375, 0.005859375)" style="fill:#000000"></use></g></g><g transform="translate(6.884765625, 1.5439453125)"><g transform="translate(0, 5.923828125)"><use x="0" y="0" xlink:href="#_glypy_0x1d456" transform="scale(0.00439453125, 0.00439453125)" style="fill:#000000"></use></g></g></g><g transform="translate(9.73681640625, 7.998046875)"><use x="0" y="0" xlink:href="#_glypy_0x2208" transform="scale(0.005859375, 0.005859375)" style="fill:#000000"></use></g><g transform="translate(17.21337890625, 7.998046875)"><use x="0" y="0" xlink:href="#_glypy_0x1d448" transform="scale(0.005859375, 0.005859375)" style="fill:#000000"></use></g></g><g transform="translate(0.7466553937038185, 0) scale(0.07890673106527094,0.07890673106527094)"><path fill="#000000" stroke="none" paint-order="stroke fill markers" d=" M 294.89 405.19 C 295.31 399.49 302.73 324.4 303.15 315.96 L 291.31 314.16 C 287.49 328.09 284.1 337.49 281.13 346.35 C 278.17 355.22 275.09 362.18 271.91 367.25 C 268.73 372.32 264.97 375.85 260.63 377.86 C 256.28 379.86 250.83 380.86 244.26 380.86 L 36.78 380.86 L 192.98 191.79 L 41.26 24.92 L 235.36 24.92 C 238.53 24.92 241.82 25.23 245.21 25.87 C 248.6 26.5 252.1 28.77 255.7 32.68 S 263.01 42.75 266.83 51.2 C 270.64 59.64 274.46 69.67 278.27 85.29 L 291.07 83.49 L 289.8 1.19 C 277.09 3.72 265.59 5.2 255.31 5.62 C 245.03 6.05 233.96 6.26 222.09 6.26 L 7.83 6.26 L 7.83 19.87 L 166.07 194.14 L 1.15 391.58 L 11.01 405.19 Z"></path></g></g><g transform="translate(132.5625, 20.01708984375)"><use x="0" y="0" xlink:href="#_glypy_0x1d460" transform="scale(0.0087890625, 0.0087890625)" style="fill:#000000"></use></g><g transform="translate(140.876953125, 20.01708984375)"><use x="0" y="0" xlink:href="#_glypy_0x1d456" transform="scale(0.0087890625, 0.0087890625)" style="fill:#000000"></use></g><g transform="translate(146.5810546875, 20.01708984375)"><use x="0" y="0" xlink:href="#_glypy_0x1d45a" transform="scale(0.0087890625, 0.0087890625)" style="fill:#000000"></use></g><g transform="translate(161.671875, 20.01708984375)"><use x="0" y="0" xlink:href="#_glypy_0x28" transform="scale(0.0087890625, 0.0087890625)" style="fill:#000000"></use></g><g transform="translate(169.142578125, 20.01708984375)"><use x="0" y="0" xlink:href="#_glypy_0x1d462" transform="scale(0.0087890625, 0.0087890625)" style="fill:#000000"></use></g><g transform="translate(179.4697265625, 20.01708984375)"><use x="0" y="0" xlink:href="#_glypy_0x2c" transform="scale(0.0087890625, 0.0087890625)" style="fill:#000000"></use></g><g transform="translate(187.125, 11.61474609375)"><g><g transform="translate(0, 8.40234375)"><use x="0" y="0" xlink:href="#_glypy_0x1d462" transform="scale(0.0087890625, 0.0087890625)" style="fill:#000000"></use></g></g><g transform="translate(10.3271484375, 3.169921875)"><g transform="translate(0, 7.8984375)"><use x="0" y="0" xlink:href="#_glypy_0x1d456" transform="scale(0.005859375, 0.005859375)" style="fill:#000000"></use></g></g></g><g transform="translate(201.2548828125, 20.01708984375)"><use x="0" y="0" xlink:href="#_glypy_0x29" transform="scale(0.0087890625, 0.0087890625)" style="fill:#000000"></use></g><g transform="translate(209.99560546875, 20.01708984375)"><use x="0" y="0" xlink:href="#_glypy_0x22c5" transform="scale(0.0087890625, 0.0087890625)" style="fill:#000000"></use></g><g transform="translate(216.345703125, 20.01708984375)"><use x="0" y="0" xlink:href="#_glypy_0x1d460" transform="scale(0.0087890625, 0.0087890625)" style="fill:#000000"></use></g><g transform="translate(224.66015625, 20.01708984375)"><use x="0" y="0" xlink:href="#_glypy_0x1d450" transform="scale(0.0087890625, 0.0087890625)" style="fill:#000000"></use></g><g transform="translate(232.939453125, 20.01708984375)"><use x="0" y="0" xlink:href="#_glypy_0x1d45c" transform="scale(0.0087890625, 0.0087890625)" style="fill:#000000"></use></g><g transform="translate(242.5283203125, 20.01708984375)"><use x="0" y="0" xlink:href="#_glypy_0x1d45f" transform="scale(0.0087890625, 0.0087890625)" style="fill:#000000"></use></g><g transform="translate(251.0888671875, 20.01708984375)"><use x="0" y="0" xlink:href="#_glypy_0x1d452" transform="scale(0.0087890625, 0.0087890625)" style="fill:#000000"></use></g><g transform="translate(260.0185546875, 20.01708984375)"><use x="0" y="0" xlink:href="#_glypy_0x28" transform="scale(0.0087890625, 0.0087890625)" style="fill:#000000"></use></g><g transform="translate(267.4892578125, 11.61474609375)"><g><g transform="translate(0, 8.40234375)"><use x="0" y="0" xlink:href="#_glypy_0x1d462" transform="scale(0.0087890625, 0.0087890625)" style="fill:#000000"></use></g></g><g transform="translate(10.3271484375, 3.169921875)"><g transform="translate(0, 7.8984375)"><use x="0" y="0" xlink:href="#_glypy_0x1d456" transform="scale(0.005859375, 0.005859375)" style="fill:#000000"></use></g></g></g><g transform="translate(281.619140625, 20.01708984375)"><use x="0" y="0" xlink:href="#_glypy_0x2c" transform="scale(0.0087890625, 0.0087890625)" style="fill:#000000"></use></g><g transform="translate(289.2744140625, 20.01708984375)"><use x="0" y="0" xlink:href="#_glypy_0x1d460" transform="scale(0.0087890625, 0.0087890625)" style="fill:#000000"></use></g><g transform="translate(297.5888671875, 20.01708984375)"><use x="0" y="0" xlink:href="#_glypy_0x29" transform="scale(0.0087890625, 0.0087890625)" style="fill:#000000"></use></g></g></g></svg>