<?xml version="1.0" encoding="UTF-8" standalone="yes"?><svg xmlns="http://www.w3.org/2000/svg" xmlns:xlink="http://www.w3.org/1999/xlink" version="1.2" baseProfile="tiny" x="0" y="0" width="78" height="23" viewBox="0 0 78 23"><defs/><defs><path id="_glypy_0x28" d="M 270 -504 C 270 -738 317.167 -937.833 411.5 -1103.5 C 505.833 -1269.17 605 -1379.67 709 -1435 L 715 -1434 L 748 -1331 C 666.667 -1267.67 596 -1165.83 536 -1025.5 C 476 -885.167 446 -712 446 -506 L 446 -494 C 446 -288 476 -115 536 25 C 596 165 666.667 269.667 748 339 L 715 435 L 709 435 C 605 379.667 505.833 269.333 411.5 104 C 317.167 -61.3333 270 -261.333 270 -496 L 270 -504 Z"/><path id="_glypy_0x29" d="M 580 -504 L 580 -496 C 580 -261.333 532.833 -61.3333 438.5 104 C 344.167 269.333 245 379.667 141 435 L 136 435 L 102 339 C 184 269.667 255 165 315 25 C 375 -115 405 -288 405 -494 L 405 -506 C 405 -712 374.833 -885.167 314.5 -1025.5 C 254.167 -1165.83 183.333 -1267.67 102 -1331 L 136 -1434 L 141 -1435 C 245 -1379.67 344.167 -1269.17 438.5 -1103.5 C 532.833 -937.833 580 -738 580 -504 Z"/><path id="_glypy_0x2c" d="M 307 -59 L 157 247 L 40 247 L 110 -69 L 110 -232 L 307 -232 L 307 -59 Z"/><path id="_glypy_0x1d456" d="M 343 16 L 172 16 L 313 -926 L 484 -926 L 343 16 M 521 -1173 L 350 -1173 L 376 -1348 L 547 -1348 L 521 -1173"/><path id="_glypy_0x1d45a" d="M 420 -832 C 458.667 -877.333 504.167 -912.167 556.5 -936.5 C 608.833 -960.833 668 -973 734 -973 C 796 -973 848.333 -958 891 -928 C 933.667 -898 962.333 -853.333 977 -794 C 1015.67 -849.333 1062.83 -893 1118.5 -925 C 1174.17 -957 1236 -973 1304 -973 C 1400 -973 1472.33 -938.667 1521 -870 C 1569.67 -801.333 1584.33 -699 1565 -563 L 1477 16 L 1300 16 L 1387 -565 C 1402.33 -664.333 1396.5 -733.167 1369.5 -771.5 C 1342.5 -809.833 1295.67 -829 1229 -829 C 1171 -829 1119.67 -807.667 1075 -765 C 1030.33 -722.333 999.667 -669 983 -605 C 982.333 -604.333 982 -603.5 982 -602.5 C 982 -601.5 982 -600.333 982 -599 L 889 16 L 710 16 L 798 -565 C 812 -659.667 805.333 -727.333 778 -768 C 750.667 -808.667 704.667 -829 640 -829 C 587.333 -829 541.667 -817.167 503 -793.5 C 464.333 -769.833 432.333 -737 407 -695 L 300 16 L 122 16 L 268 -955 L 427 -955 L 420 -832 Z"/><path id="_glypy_0x1d460" d="M 648 -258 C 653.333 -297.333 643.333 -328.833 618 -352.5 C 592.667 -376.167 540.333 -397 461 -415 C 351.667 -439.667 269.833 -473.333 215.5 -516 C 161.167 -558.667 139.333 -616.667 150 -690 C 160.667 -770.667 202.667 -837.833 276 -891.5 C 349.333 -945.167 439.333 -972 546 -972 C 649.333 -972 731.667 -942.333 793 -883 C 854.333 -823.667 878 -755.333 864 -678 L 863 -673 L 696 -673 C 702 -715 689.333 -752.5 658 -785.5 C 626.667 -818.5 583 -835 527 -835 C 468.333 -835 421.167 -821 385.5 -793 C 349.833 -765 329.333 -732.333 324 -695 C 318.667 -656.333 327.5 -627 350.5 -607 C 373.5 -587 425.333 -568.333 506 -551 C 619.333 -526.333 703.167 -491.667 757.5 -447 C 811.833 -402.333 834 -343.667 824 -271 C 811.333 -183 767.333 -113 692 -61 C 616.667 -9 523.333 17 412 17 C 295.333 17 205 -14.1667 141 -76.5 C 77 -138.833 52.3333 -210.667 67 -292 L 69 -297 L 236 -297 C 230.667 -235 247.5 -189.833 286.5 -161.5 C 325.5 -133.167 373.667 -119 431 -119 C 490.333 -119 539.667 -132.167 579 -158.5 C 618.333 -184.833 641.333 -218 648 -258 Z"/><path id="_glypy_0x1d462" d="M 737 -3 L 747 -142 C 708.333 -90.6667 663.167 -51.5 611.5 -24.5 C 559.833 2.5 502.333 16 439 16 C 336.333 16 259.667 -18.3333 209 -87 C 158.333 -155.667 143.667 -260.333 165 -401 L 250 -973 L 427 -973 L 341 -400 C 325 -292.667 329.167 -220.5 353.5 -183.5 C 377.833 -146.5 423 -128 489 -128 C 550.333 -128 603.833 -141.167 649.5 -167.5 C 695.167 -193.833 732.333 -231.333 761 -280 L 864 -973 L 1041 -973 L 896 -3 L 737 -3 Z"/></defs><g><g transform="matrix(1,0,0,1,1,1)"><g transform="matrix(1,0,0,1,0,14.4)"><use fill="#000000" transform="matrix(0.00878906,0,0,0.00878906,0,0)" x="0" y="0" xlink:href="#_glypy_0x1d460"/></g><g transform="matrix(1,0,0,1,8.31445,14.4)"><use fill="#000000" transform="matrix(0.00878906,0,0,0.00878906,0,0)" x="0" y="0" xlink:href="#_glypy_0x1d456"/></g><g transform="matrix(1,0,0,1,14.0186,14.4)"><use fill="#000000" transform="matrix(0.00878906,0,0,0.00878906,0,0)" x="0" y="0" xlink:href="#_glypy_0x1d45a"/></g><g transform="matrix(1,0,0,1,29.1094,14.4)"><use fill="#000000" transform="matrix(0.00878906,0,0,0.00878906,0,0)" x="0" y="0" xlink:href="#_glypy_0x28"/></g><g transform="matrix(1,0,0,1,36.5801,14.4)"><use fill="#000000" transform="matrix(0.00878906,0,0,0.00878906,0,0)" x="0" y="0" xlink:href="#_glypy_0x1d462"/></g><g transform="matrix(1,0,0,1,46.9072,14.4)"><use fill="#000000" transform="matrix(0.00878906,0,0,0.00878906,0,0)" x="0" y="0" xlink:href="#_glypy_0x2c"/></g><g transform="matrix(1,0,0,1,54.5625,5.99766)"><g transform="matrix(1,0,0,1,0,8.40234)"><use fill="#000000" transform="matrix(0.00878906,0,0,0.00878906,0,0)" x="0" y="0" xlink:href="#_glypy_0x1d462"/></g></g><g transform="matrix(1,0,0,1,64.8896,5.99766)"><g transform="matrix(1,0,0,1,0,3.16992)"><g transform="matrix(1,0,0,1,0,7.89844)"><use fill="#000000" transform="matrix(0.00585938,0,0,0.00585938,0,0)" x="0" y="0" xlink:href="#_glypy_0x1d456"/></g></g></g><g transform="matrix(1,0,0,1,68.6924,14.4)"><use fill="#000000" transform="matrix(0.00878906,0,0,0.00878906,0,0)" x="0" y="0" xlink:href="#_glypy_0x29"/></g></g></g></svg>
