<svg wpsType="latex" version="1.1" xmlns="http://www.w3.org/2000/svg" xmlns:xlink="http://www.w3.org/1999/xlink" width="16" height="14" overflow="hidden" viewBox="0 0 16 14"><defs><path id="_glypy_0x1d456" d="M343 16H172L313 -926H484ZM521 -1173H350L376 -1348H547Z"></path><path id="_glypy_0x1d462" d="M737 -3 747 -142Q689 -65 611.5 -24.5Q534 16 439 16Q285 16 209.0 -87.0Q133 -190 165 -401L250 -973H427L341 -400Q317 -239 353.5 -183.5Q390 -128 489 -128Q581 -128 649.5 -167.5Q718 -207 761 -280L864 -973H1041L896 -3Z"></path></defs><g><g transform="translate(1, 1)"><g><g transform="translate(0, 8.40234375)"><use x="0" y="0" xlink:href="#_glypy_0x1d462" transform="scale(0.0087890625, 0.0087890625)" style="fill:#000000"></use></g></g><g transform="translate(10.3271484375, 0)"><g transform="translate(0, 3.169921875)"><g transform="translate(0, 7.8984375)"><use x="0" y="0" xlink:href="#_glypy_0x1d456" transform="scale(0.005859375, 0.005859375)" style="fill:#000000"></use></g></g></g></g></g></svg>