<?xml version="1.0" encoding="UTF-8" standalone="yes"?><svg xmlns="http://www.w3.org/2000/svg" xmlns:xlink="http://www.w3.org/1999/xlink" version="1.2" baseProfile="tiny" x="0" y="0" width="87" height="23" viewBox="0 0 87 23"><defs/><defs><path id="_glypy_0x28" d="M 270 -504 C 270 -738 317.167 -937.833 411.5 -1103.5 C 505.833 -1269.17 605 -1379.67 709 -1435 L 715 -1434 L 748 -1331 C 666.667 -1267.67 596 -1165.83 536 -1025.5 C 476 -885.167 446 -712 446 -506 L 446 -494 C 446 -288 476 -115 536 25 C 596 165 666.667 269.667 748 339 L 715 435 L 709 435 C 605 379.667 505.833 269.333 411.5 104 C 317.167 -61.3333 270 -261.333 270 -496 L 270 -504 Z"/><path id="_glypy_0x29" d="M 580 -504 L 580 -496 C 580 -261.333 532.833 -61.3333 438.5 104 C 344.167 269.333 245 379.667 141 435 L 136 435 L 102 339 C 184 269.667 255 165 315 25 C 375 -115 405 -288 405 -494 L 405 -506 C 405 -712 374.833 -885.167 314.5 -1025.5 C 254.167 -1165.83 183.333 -1267.67 102 -1331 L 136 -1434 L 141 -1435 C 245 -1379.67 344.167 -1269.17 438.5 -1103.5 C 532.833 -937.833 580 -738 580 -504 Z"/><path id="_glypy_0x2c" d="M 307 -59 L 157 247 L 40 247 L 110 -69 L 110 -232 L 307 -232 L 307 -59 Z"/><path id="_glypy_0x1d450" d="M 474 -119 C 525.333 -119 574 -137 620 -173 C 666 -209 693.333 -252.333 702 -303 L 859 -303 L 860 -298 C 850 -212 804.167 -138 722.5 -76 C 640.833 -14 551.333 17 454 17 C 325.333 17 230 -29 168 -121 C 106 -213 85 -326 105 -460 L 110 -497 C 131.333 -635.667 185 -749.5 271 -838.5 C 357 -927.5 467.333 -972 602 -972 C 704.667 -972 786 -938.833 846 -872.5 C 906 -806.167 927.667 -725.333 911 -630 L 909 -625 L 750 -625 C 758.667 -685.667 747.5 -735.833 716.5 -775.5 C 685.5 -815.167 640.667 -835 582 -835 C 500 -835 433.333 -801.333 382 -734 C 330.667 -666.667 298.333 -587.667 285 -497 L 280 -460 C 264.667 -361.333 271.333 -279.833 300 -215.5 C 328.667 -151.167 386.667 -119 474 -119 Z"/><path id="_glypy_0x1d452" d="M 478 16 C 347.333 16 249.167 -28 183.5 -116 C 117.833 -204 95.6667 -320 117 -464 L 123 -502 C 143.667 -643.333 199.333 -757.167 290 -843.5 C 380.667 -929.833 483.333 -973 598 -973 C 720 -973 807.833 -933 861.5 -853 C 915.167 -773 932.333 -669 913 -541 L 900 -450 L 288 -450 C 274 -345.333 283.667 -264 317 -206 C 350.333 -148 411 -119 499 -119 C 555 -119 607 -127.5 655 -144.5 C 703 -161.5 744.667 -184 780 -212 L 830 -100 C 792 -67.3333 743.5 -39.8333 684.5 -17.5 C 625.5 4.83333 556.667 16 478 16 M 578 -837 C 520.667 -837 468.5 -813.667 421.5 -767 C 374.5 -720.333 340.667 -661.333 320 -590 L 322 -585 L 748 -585 L 750 -599 C 760.667 -669.667 752.5 -727 725.5 -771 C 698.5 -815 649.333 -837 578 -837"/><path id="_glypy_0x1d45c" d="M 120 -488 C 142 -632.667 197.667 -749.5 287 -838.5 C 376.333 -927.5 487 -972 619 -972 C 746.333 -972 842.667 -926 908 -834 C 973.333 -742 996 -626.667 976 -488 L 972 -468 C 950 -320.667 894.5 -203 805.5 -115 C 716.5 -27 605.667 17 473 17 C 345.667 17 249.167 -28.8333 183.5 -120.5 C 117.833 -212.167 95.6667 -328 117 -468 L 120 -488 M 291 -468 C 275 -363.333 283.5 -279 316.5 -215 C 349.5 -151 408.333 -119 493 -119 C 572.333 -119 639.167 -152.333 693.5 -219 C 747.833 -285.667 782.667 -368.667 798 -468 L 802 -488 C 817.333 -590 808.333 -673.333 775 -738 C 741.667 -802.667 683 -835 599 -835 C 519 -835 451.833 -801.333 397.5 -734 C 343.167 -666.667 308.667 -584.667 294 -488 L 291 -468"/><path id="_glypy_0x1d45f" d="M 743 -801 L 655 -806 C 609.667 -806 569.5 -794.667 534.5 -772 C 499.5 -749.333 470 -717.333 446 -676 L 344 0 L 169 0 L 313 -955 L 469 -955 L 465 -820 C 499.667 -868 538.833 -905.5 582.5 -932.5 C 626.167 -959.5 674.333 -973 727 -973 C 739 -973 751.167 -972 763.5 -970 C 775.833 -968 785.333 -965.667 792 -963 L 743 -801 Z"/><path id="_glypy_0x1d460" d="M 648 -258 C 653.333 -297.333 643.333 -328.833 618 -352.5 C 592.667 -376.167 540.333 -397 461 -415 C 351.667 -439.667 269.833 -473.333 215.5 -516 C 161.167 -558.667 139.333 -616.667 150 -690 C 160.667 -770.667 202.667 -837.833 276 -891.5 C 349.333 -945.167 439.333 -972 546 -972 C 649.333 -972 731.667 -942.333 793 -883 C 854.333 -823.667 878 -755.333 864 -678 L 863 -673 L 696 -673 C 702 -715 689.333 -752.5 658 -785.5 C 626.667 -818.5 583 -835 527 -835 C 468.333 -835 421.167 -821 385.5 -793 C 349.833 -765 329.333 -732.333 324 -695 C 318.667 -656.333 327.5 -627 350.5 -607 C 373.5 -587 425.333 -568.333 506 -551 C 619.333 -526.333 703.167 -491.667 757.5 -447 C 811.833 -402.333 834 -343.667 824 -271 C 811.333 -183 767.333 -113 692 -61 C 616.667 -9 523.333 17 412 17 C 295.333 17 205 -14.1667 141 -76.5 C 77 -138.833 52.3333 -210.667 67 -292 L 69 -297 L 236 -297 C 230.667 -235 247.5 -189.833 286.5 -161.5 C 325.5 -133.167 373.667 -119 431 -119 C 490.333 -119 539.667 -132.167 579 -158.5 C 618.333 -184.833 641.333 -218 648 -258 Z"/><path id="_glypy_0x1d462" d="M 737 -3 L 747 -142 C 708.333 -90.6667 663.167 -51.5 611.5 -24.5 C 559.833 2.5 502.333 16 439 16 C 336.333 16 259.667 -18.3333 209 -87 C 158.333 -155.667 143.667 -260.333 165 -401 L 250 -973 L 427 -973 L 341 -400 C 325 -292.667 329.167 -220.5 353.5 -183.5 C 377.833 -146.5 423 -128 489 -128 C 550.333 -128 603.833 -141.167 649.5 -167.5 C 695.167 -193.833 732.333 -231.333 761 -280 L 864 -973 L 1041 -973 L 896 -3 L 737 -3 Z"/></defs><g><g transform="matrix(1,0,0,1,1,1)"><g transform="matrix(1,0,0,1,0,14.4)"><use fill="#000000" transform="matrix(0.00878906,0,0,0.00878906,0,0)" x="0" y="0" xlink:href="#_glypy_0x1d460"/></g><g transform="matrix(1,0,0,1,8.31445,14.4)"><use fill="#000000" transform="matrix(0.00878906,0,0,0.00878906,0,0)" x="0" y="0" xlink:href="#_glypy_0x1d450"/></g><g transform="matrix(1,0,0,1,16.5938,14.4)"><use fill="#000000" transform="matrix(0.00878906,0,0,0.00878906,0,0)" x="0" y="0" xlink:href="#_glypy_0x1d45c"/></g><g transform="matrix(1,0,0,1,26.1826,14.4)"><use fill="#000000" transform="matrix(0.00878906,0,0,0.00878906,0,0)" x="0" y="0" xlink:href="#_glypy_0x1d45f"/></g><g transform="matrix(1,0,0,1,34.7432,14.4)"><use fill="#000000" transform="matrix(0.00878906,0,0,0.00878906,0,0)" x="0" y="0" xlink:href="#_glypy_0x1d452"/></g><g transform="matrix(1,0,0,1,43.6729,14.4)"><use fill="#000000" transform="matrix(0.00878906,0,0,0.00878906,0,0)" x="0" y="0" xlink:href="#_glypy_0x28"/></g><g transform="matrix(1,0,0,1,51.1436,14.4)"><use fill="#000000" transform="matrix(0.00878906,0,0,0.00878906,0,0)" x="0" y="0" xlink:href="#_glypy_0x1d462"/></g><g transform="matrix(1,0,0,1,61.4707,14.4)"><use fill="#000000" transform="matrix(0.00878906,0,0,0.00878906,0,0)" x="0" y="0" xlink:href="#_glypy_0x2c"/></g><g transform="matrix(1,0,0,1,69.126,14.4)"><use fill="#000000" transform="matrix(0.00878906,0,0,0.00878906,0,0)" x="0" y="0" xlink:href="#_glypy_0x1d460"/></g><g transform="matrix(1,0,0,1,77.4404,14.4)"><use fill="#000000" transform="matrix(0.00878906,0,0,0.00878906,0,0)" x="0" y="0" xlink:href="#_glypy_0x29"/></g></g></g></svg>
