<svg wpsType="latex" version="1.1" xmlns="http://www.w3.org/2000/svg" xmlns:xlink="http://www.w3.org/1999/xlink" width="10" height="11" overflow="hidden" viewBox="0 0 10 11"><defs><path id="_glypy_0x1d460" d="M648 -258Q656 -317 618.0 -352.5Q580 -388 461 -415Q297 -452 215.5 -516.0Q134 -580 150 -690Q166 -811 276.0 -891.5Q386 -972 546 -972Q701 -972 793.0 -883.0Q885 -794 864 -678L863 -673H696Q705 -736 658.0 -785.5Q611 -835 527 -835Q439 -835 385.5 -793.0Q332 -751 324 -695Q316 -637 350.5 -607.0Q385 -577 506 -551Q676 -514 757.5 -447.0Q839 -380 824 -271Q805 -139 692.0 -61.0Q579 17 412 17Q237 17 141.0 -76.5Q45 -170 67 -292L69 -297H236Q228 -204 286.5 -161.5Q345 -119 431 -119Q520 -119 579.0 -158.5Q638 -198 648 -258Z"></path></defs><g><g transform="translate(1, 1)"><g transform="translate(0, 8.5517578125)"><use x="0" y="0" xlink:href="#_glypy_0x1d460" transform="scale(0.0087890625, 0.0087890625)" style="fill:#000000"></use></g></g></g></svg>